<?xml version="1.0" encoding="UTF-8" standalone="no"?>
<svg version="1.1" viewBox="0 0 180 180" x="0px" xmlns="http://www.w3.org/2000/svg" y="0px">
    <g style="opacity:0.2" transform="matrix(1.2954243,0,0,1.3279557,11.21672,18.836255)">
        <path style="fill:#333333;stroke-width:0"
            d="M 39.973992,102.53636 C 33.026461,96.512064 23.763087,88.228655 15.840518,81.437709 39.973992,53.588945 56.911905,34.347372 80.353381,6.4377114 96.236821,20.122136 114.62694,39.653733 130.29189,53.588945 c 0.0447,26.432274 -0.0447,41.341075 0,67.773345 -25.73327,-0.0131 -43.742033,0.0131 -69.475307,0 z" />
    </g>
    <g transform="matrix(1.345901,1.129345,-1.129345,1.345901,85.306014,-27.605716)">
        <circle cx="50" cy="62.479076" fill="#FFF" id="circle1050" r="6.9" />
        <path
            d="M 49.8,13 H 33.2 v 74 h 16.5 c 9.4,0 17,-7.6 17,-17 V 30 C 66.8,20.6 59.1,13 49.8,13 Z m 13,57 c 0,7.2 -5.8,13 -13,13 H 37.2 V 17 h 12.5 c 7.2,0 13,5.8 13,13 v 40 z"
            fill="#FFF" />
        <path
            d="m 47.600002,34.965538 c 0,1.767311 -1.432689,3.2 -3.2,3.2 -1.767312,0 -3.200001,-1.432689 -3.200001,-3.2 0,-1.767312 1.432689,-3.200001 3.200001,-3.2 1.767311,0 3.2,1.432689 3.2,3.2 z m 11.199997,0 c 0,1.767311 -1.432689,3.2 -3.200001,3.2 -1.767311,0 -3.2,-1.432689 -3.2,-3.2 0,-1.767311 1.432689,-3.2 3.2,-3.2 1.767312,-1e-6 3.200001,1.432688 3.200001,3.2 z M 53.2,29.365537 c 0,1.767311 -1.432689,3.2 -3.2,3.2 -1.767311,0 -3.2,-1.432689 -3.2,-3.2 0,-1.767311 1.432689,-3.2 3.2,-3.2 1.767311,0 3.2,1.432689 3.2,3.2 z m 0,11.199999 c 0,1.767311 -1.432689,3.2 -3.2,3.2 -1.767311,0 -3.2,-1.432689 -3.2,-3.2 0,-1.767311 1.432689,-3.2 3.2,-3.2 1.767311,0 3.2,1.432689 3.2,3.2 z"
            fill="#FFF" />
    </g>
</svg>