<?xml version="1.0" encoding="UTF-8" standalone="no"?>
<svg height="300px" version="1.1" viewBox="0 0 166.23 221.81" width="300px" x="0px"
    xmlns="http://www.w3.org/2000/svg" y="0px">
    <!-- body -->
    <path
        d="m 47.43,0 h 28.7 C 99.6,0 118.8,19.2 118.8,42.67 v 136.47 c 0,23.48 -19.2,42.67 -42.67,42.67 h -28.7 z m 6.17,20.07 h 4.04 v -4.05 c 0,-0.28 0.23,-0.5 0.5,-0.5 h 2.95 c 0.28,0 0.5,0.22 0.5,0.5 v 4.05 h 4.04 c 0.27,0 0.5,0.22 0.5,0.5 v 2.96 c 0,0.27 -0.22,0.49 -0.5,0.49 h -4.04 v 4.04 c 0,0.27 -0.23,0.5 -0.5,0.5 h -2.95 c -0.28,0 -0.5,-0.23 -0.5,-0.5 V 24.02 H 53.6 c -0.27,0 -0.5,-0.22 -0.5,-0.49 v -2.96 c 0,-0.28 0.23,-0.5 0.5,-0.5 z m 15.95,130.94 c 4.46,0 8.07,3.62 8.07,8.06 0,4.46 -3.61,8.07 -8.07,8.07 -4.45,0 -8.06,-3.61 -8.06,-8.07 0,-4.45 3.62,-8.06 8.06,-8.06 z m 3.58,-94.83 c 0,4.46 -3.61,8.07 -8.06,8.07 -4.45,0 -8.06,-3.61 -8.06,-8.07 0,-4.45 3.61,-8.06 8.06,-8.06 4.45,0 8.06,3.62 8.06,8.06 z m 8.28,8.29 c 4.45,0 8.07,3.61 8.07,8.06 0,4.46 -3.62,8.07 -8.07,8.07 -4.45,0 -8.06,-3.61 -8.06,-8.07 0,-4.45 3.61,-8.06 8.06,-8.06 z m 24.42,-8.29 c 0,4.46 -3.61,8.07 -8.07,8.07 -4.45,0 -8.06,-3.61 -8.06,-8.07 0,-4.45 3.62,-8.06 8.06,-8.06 4.46,0 8.07,3.62 8.07,8.06 z M 81.41,31.77 c 4.45,0 8.07,3.61 8.07,8.07 0,4.45 -3.62,8.06 -8.07,8.06 -4.45,0 -8.06,-3.61 -8.06,-8.06 0,-4.45 3.61,-8.07 8.06,-8.07 z m -0.1,69.19 c 9.44,0 17.09,7.66 17.09,17.09 0,9.44 -7.65,17.09 -17.09,17.09 -9.43,0 -17.09,-7.65 -17.09,-17.09 0,-9.44 7.66,-17.09 17.09,-17.09 z" />
    <!-- button -->
    <path
        d="m 47.43,221.81 c -50.1466667,0 -25.073333,0 0,0 z M 53.6,20.07 h 4.04 v -4.05 c 0,-0.28 0.23,-0.5 0.5,-0.5 h 2.95 c 0.28,0 0.5,0.22 0.5,0.5 v 4.05 h 4.04 c 0.27,0 0.5,0.22 0.5,0.5 v 2.96 c 0,0.27 -0.22,0.49 -0.5,0.49 h -4.04 v 4.04 c 0,0.27 -0.23,0.5 -0.5,0.5 h -2.95 c -0.28,0 -0.5,-0.23 -0.5,-0.5 V 24.02 H 53.6 c -0.27,0 -0.5,-0.22 -0.5,-0.49 v -2.96 c 0,-0.28 0.23,-0.5 0.5,-0.5 z m 15.95,130.94 c 4.46,0 8.07,3.62 8.07,8.06 0,4.46 -3.61,8.07 -8.07,8.07 -4.45,0 -8.06,-3.61 -8.06,-8.07 0,-4.45 3.62,-8.06 8.06,-8.06 z m 3.58,-94.83 c 0,4.46 -3.61,8.07 -8.06,8.07 -4.45,0 -8.06,-3.61 -8.06,-8.07 0,-4.45 3.61,-8.06 8.06,-8.06 4.45,0 8.06,3.62 8.06,8.06 z m 8.28,8.29 c 4.45,0 8.07,3.61 8.07,8.06 0,4.46 -3.62,8.07 -8.07,8.07 -4.45,0 -8.06,-3.61 -8.06,-8.07 0,-4.45 3.61,-8.06 8.06,-8.06 z m 24.42,-8.29 c 0,4.46 -3.61,8.07 -8.07,8.07 -4.45,0 -8.06,-3.61 -8.06,-8.07 0,-4.45 3.62,-8.06 8.06,-8.06 4.46,0 8.07,3.62 8.07,8.06 z M 81.41,31.77 c 4.45,0 8.07,3.61 8.07,8.07 0,4.45 -3.62,8.06 -8.07,8.06 -4.45,0 -8.06,-3.61 -8.06,-8.06 0,-4.45 3.61,-8.07 8.06,-8.07 z m -0.1,69.19 c 9.44,0 17.09,7.66 17.09,17.09 0,9.44 -7.65,17.09 -17.09,17.09 -9.43,0 -17.09,-7.65 -17.09,-17.09 0,-9.44 7.66,-17.09 17.09,-17.09 z" />
    <!-- outline -->
    <path d="M 47.43 0 L 47.43 221.81 L 76.13 221.81 C 99.60,221.81 118.80,202.62 118.80,179.14 L 118.80 42.67 C 118.80,19.20 99.60,0.0 76.13,0 L 47.43 0 z M 77.00 1.88 C 96.42,2.31 114.41,17.95 116.47,37.53 C 117.25,82.36 116.57,127.26 116.80,172.11 C 118.43,187.62 112.22,204.17 98.84,212.83 C 84.44,223.25 65.89,218.94 49.43,219.81 C 49.43,147.21 49.43,74.60 49.43,2.00 L 73.11 2.00 C 74.41,1.89 75.71,1.85 77.00,1.88 z" />
</svg>