<?xml version="1.0" encoding="UTF-8" standalone="no"?>
<svg height="300px" version="1.1" viewBox="0 0 166.23 221.81" width="300px" x="0px"
    xmlns="http://www.w3.org/2000/svg" y="0px">
    <g transform="translate(47.43)">
        <path style="fill:#FFF;stroke-width:1.35"
            d="M 159.44727,0 C 127.70388,0 101.73633,25.967554 101.73633,57.710938 V 242.28906 c 0,31.75691 25.96755,57.71094 57.71094,57.71094 h 38.8164 V 0 Z m 17.33203,2.703125 c 6.25936,0.00267 12.52001,0.00872 18.77929,0.00195 V 297.29492 h -32.01953 c -28.67134,2.471 -56.48931,-20.58071 -58.81054,-49.36523 -0.68526,-62.47294 -0.0853,-124.98934 -0.28711,-187.478518 -1.9688,-29.911844 23.55835,-57.574342 53.56054,-57.7285158 6.25918,-0.022395 12.51799,-0.022198 18.77735,-0.019531 z"
            id="path6" transform="matrix(0.73936667,0,0,0.73936667,-75.22,0)" />
    </g>
</svg>