<?xml version="1.0" encoding="UTF-8" standalone="no"?>
<svg fill="#000000" height="300px" version="1.1" viewBox="0 0 166.23 221.81" width="300px" x="0px"
    xmlns="http://www.w3.org/2000/svg" y="0px">
    <!-- body -->
    <path
        d="M 118.8,0 H 90.17 C 66.63,0 47.43,19.2 47.43,42.67 v 136.47 c 0,23.48 19.2,42.67 42.67,42.67 h 28.7 z M 85.38,39.2 c 9.44,0 17.1,7.65 17.1,17.09 0,9.44 -7.66,17.09 -17.1,17.09 -9.44,0 -17.09,-7.65 -17.09,-17.09 0,-9.44 7.66,-17.09 17.09,-17.09 z m 16.1,-19.13 h 12.03 c 0.28,0 0.5,0.22 0.5,0.5 v 2.96 c 0,0.28 -0.23,0.5 -0.5,0.5 H 101.48 c -0.28,0 -0.5,-0.22 -0.5,-0.5 v -2.96 c 0,-0.28 0.22,-0.5 0.5,-0.5 z m -7.37,132.49 h 6.47 c 1.81,0 3.28,1.47 3.28,3.28 v 6.48 c 0,1.8 -1.47,3.28 -3.28,3.28 h -6.47 c -1.81,0 -3.28,-1.48 -3.28,-3.28 v -6.48 c 0,-1.8 1.47,-3.28 3.28,-3.28 z m -16.53,-35 c 0,4.45 -3.61,8.07 -8.06,8.07 -4.45,0 -8.07,-3.62 -8.07,-8.07 0,-4.45 3.62,-8.06 8.07,-8.06 4.45,0 8.06,3.61 8.06,8.06 z m 8.28,8.28 c 4.45,0 8.06,3.62 8.06,8.07 0,4.46 -3.61,8.07 -8.06,8.07 -4.45,0 -8.07,-3.61 -8.07,-8.07 0,-4.45 3.61,-8.07 8.07,-8.07 z m 24.41,-8.28 c 0,4.45 -3.62,8.07 -8.07,8.07 -4.46,0 -8.07,-3.62 -8.07,-8.07 0,-4.45 3.61,-8.06 8.07,-8.06 4.45,0 8.07,3.61 8.07,8.06 z M 85.86,93.15 c 4.45,0 8.06,3.61 8.06,8.07 0,4.45 -3.61,8.07 -8.06,8.07 -4.45,0 -8.07,-3.62 -8.07,-8.07 0,-4.45 3.61,-8.07 8.07,-8.07 z" />
    <!-- button -->
    <path
        d="m 118.8,221.81 c -97.726667,0 -48.863333,0 0,0 z M 85.38,39.2 c 9.44,0 17.1,7.65 17.1,17.09 0,9.44 -7.66,17.09 -17.1,17.09 -9.44,0 -17.09,-7.65 -17.09,-17.09 0,-9.44 7.66,-17.09 17.09,-17.09 z m 16.1,-19.13 h 12.03 c 0.28,0 0.5,0.22 0.5,0.5 v 2.96 c 0,0.28 -0.23,0.5 -0.5,0.5 H 101.48 c -0.28,0 -0.5,-0.22 -0.5,-0.5 v -2.96 c 0,-0.28 0.22,-0.5 0.5,-0.5 z m -7.37,132.49 h 6.47 c 1.81,0 3.28,1.47 3.28,3.28 v 6.48 c 0,1.8 -1.47,3.28 -3.28,3.28 h -6.47 c -1.81,0 -3.28,-1.48 -3.28,-3.28 v -6.48 c 0,-1.8 1.47,-3.28 3.28,-3.28 z m -16.53,-35 c 0,4.45 -3.61,8.07 -8.06,8.07 -4.45,0 -8.07,-3.62 -8.07,-8.07 0,-4.45 3.62,-8.06 8.07,-8.06 4.45,0 8.06,3.61 8.06,8.06 z m 8.28,8.28 c 4.45,0 8.06,3.62 8.06,8.07 0,4.46 -3.61,8.07 -8.06,8.07 -4.45,0 -8.07,-3.61 -8.07,-8.07 0,-4.45 3.61,-8.07 8.07,-8.07 z m 24.41,-8.28 c 0,4.45 -3.62,8.07 -8.07,8.07 -4.46,0 -8.07,-3.62 -8.07,-8.07 0,-4.45 3.61,-8.06 8.07,-8.06 4.45,0 8.07,3.61 8.07,8.06 z M 85.86,93.15 c 4.45,0 8.06,3.61 8.06,8.07 0,4.45 -3.61,8.07 -8.06,8.07 -4.45,0 -8.07,-3.62 -8.07,-8.07 0,-4.45 3.61,-8.07 8.07,-8.07 z" />
    <!-- outline -->
    <path d="M 90.10,0 C 66.63,0 47.43,19.20 47.43,42.67 V 179.14 c 0,23.48 19.20,42.70 42.67,42.70 h 28.70 V 0 Z m 12.81,2.00 c 4.63,0.00 9.26,0.01 13.88,0.00 V 219.80 h -23.67 c -21.20,1.83 -41.77,-15.22 -43.48,-36.50 -0.51,-46.19 -0.06,-92.41 -0.21,-138.62 -1.46,-22.12 17.42,-42.57 39.60,-42.68 4.63,-0.02 9.26,-0.012 13.88,-0.01 z" />
</svg>
