<?xml version="1.0" encoding="UTF-8" standalone="no"?>
<svg
    style="shape-rendering:geometricPrecision;text-rendering:geometricPrecision;image-rendering:optimizeQuality;"
    clip-rule="evenodd" fill="#000000" fill-rule="evenodd" height="300px" id="svg10" version="1.1"
    viewBox="0 0 166.23 221.81" width="300px" x="0px" xmlns="http://www.w3.org/2000/svg" y="0px"
    xml:space="preserve">
        <path
            d="m 47.43,221.81 c -50.1466667,0 -25.073333,0 0,0 z M 53.6,20.07 h 4.04 v -4.05 c 0,-0.28 0.23,-0.5 0.5,-0.5 h 2.95 c 0.28,0 0.5,0.22 0.5,0.5 v 4.05 h 4.04 c 0.27,0 0.5,0.22 0.5,0.5 v 2.96 c 0,0.27 -0.22,0.49 -0.5,0.49 h -4.04 v 4.04 c 0,0.27 -0.23,0.5 -0.5,0.5 h -2.95 c -0.28,0 -0.5,-0.23 -0.5,-0.5 V 24.02 H 53.6 c -0.27,0 -0.5,-0.22 -0.5,-0.49 v -2.96 c 0,-0.28 0.23,-0.5 0.5,-0.5 z m 15.95,130.94 c 4.46,0 8.07,3.62 8.07,8.06 0,4.46 -3.61,8.07 -8.07,8.07 -4.45,0 -8.06,-3.61 -8.06,-8.07 0,-4.45 3.62,-8.06 8.06,-8.06 z m 3.58,-94.83 c 0,4.46 -3.61,8.07 -8.06,8.07 -4.45,0 -8.06,-3.61 -8.06,-8.07 0,-4.45 3.61,-8.06 8.06,-8.06 4.45,0 8.06,3.62 8.06,8.06 z m 8.28,8.29 c 4.45,0 8.07,3.61 8.07,8.06 0,4.46 -3.62,8.07 -8.07,8.07 -4.45,0 -8.06,-3.61 -8.06,-8.07 0,-4.45 3.61,-8.06 8.06,-8.06 z m 24.42,-8.29 c 0,4.46 -3.61,8.07 -8.07,8.07 -4.45,0 -8.06,-3.61 -8.06,-8.07 0,-4.45 3.62,-8.06 8.06,-8.06 4.46,0 8.07,3.62 8.07,8.06 z M 81.41,31.77 c 4.45,0 8.07,3.61 8.07,8.07 0,4.45 -3.62,8.06 -8.07,8.06 -4.45,0 -8.06,-3.61 -8.06,-8.06 0,-4.45 3.61,-8.07 8.06,-8.07 z m -0.1,69.19 c 9.44,0 17.09,7.66 17.09,17.09 0,9.44 -7.65,17.09 -17.09,17.09 -9.43,0 -17.09,-7.65 -17.09,-17.09 0,-9.44 7.66,-17.09 17.09,-17.09 z"
            fill="#FFF" id="path6" />
   </svg>