<?xml version="1.0" encoding="UTF-8" standalone="no"?>
<svg height="300px" version="1.1" viewBox="0 0 166.23 221.81" width="300px" x="0px"
    xmlns="http://www.w3.org/2000/svg" y="0px">
    <path style="fill:#FFF;stroke-width:1.35"
        d="M 101.73633 0 L 101.73633 300 L 140.55273 300 C 172.29612 300 198.26367 274.04597 198.26367 242.28906 L 198.26367 57.710938 C 198.26367 25.967554 172.29612 0 140.55273 0 L 101.73633 0 z M 141.73438 2.5429688 C 167.99236 3.1226964 192.32207 24.272068 195.11914 50.761719 C 196.16843 111.39741 195.2518 172.11454 195.56055 232.78125 C 197.76891 253.76134 189.37604 276.149 171.27344 287.85547 C 151.79396 301.94911 126.69951 296.11832 104.43945 297.29492 C 104.43945 199.09801 104.43945 100.90198 104.43945 2.7050781 L 136.46289 2.7050781 C 138.22475 2.556369 139.98384 2.5043202 141.73438 2.5429688 z "
        transform="matrix(0.73936667,0,0,0.73936667,-27.79,0)" />
</svg>