<?xml version="1.0" encoding="UTF-8" standalone="no"?>
<svg height="300px" id="svg10" version="1.1" viewBox="0 0 166.23 221.81" width="300px" x="0px"
    xmlns="http://www.w3.org/2000/svg" y="0px">
    <path
        d="m 71.37,221.81 c -97.726667,0 -48.863333,0 0,0 z M 37.95,39.2 c 9.44,0 17.1,7.65 17.1,17.09 0,9.44 -7.66,17.09 -17.1,17.09 -9.44,0 -17.09,-7.65 -17.09,-17.09 0,-9.44 7.66,-17.09 17.09,-17.09 z m 16.1,-19.13 h 12.03 c 0.28,0 0.5,0.22 0.5,0.5 v 2.96 c 0,0.28 -0.23,0.5 -0.5,0.5 H 54.05 c -0.28,0 -0.5,-0.22 -0.5,-0.5 v -2.96 c 0,-0.28 0.22,-0.5 0.5,-0.5 z m -7.37,132.49 h 6.47 c 1.81,0 3.28,1.47 3.28,3.28 v 6.48 c 0,1.8 -1.47,3.28 -3.28,3.28 h -6.47 c -1.81,0 -3.28,-1.48 -3.28,-3.28 v -6.48 c 0,-1.8 1.47,-3.28 3.28,-3.28 z m -16.53,-35 c 0,4.45 -3.61,8.07 -8.06,8.07 -4.45,0 -8.07,-3.62 -8.07,-8.07 0,-4.45 3.62,-8.06 8.07,-8.06 4.45,0 8.06,3.61 8.06,8.06 z m 8.28,8.28 c 4.45,0 8.06,3.62 8.06,8.07 0,4.46 -3.61,8.07 -8.06,8.07 -4.45,0 -8.07,-3.61 -8.07,-8.07 0,-4.45 3.61,-8.07 8.07,-8.07 z m 24.41,-8.28 c 0,4.45 -3.62,8.07 -8.07,8.07 -4.46,0 -8.07,-3.62 -8.07,-8.07 0,-4.45 3.61,-8.06 8.07,-8.06 4.45,0 8.07,3.61 8.07,8.06 z M 38.43,93.15 c 4.45,0 8.06,3.61 8.06,8.07 0,4.45 -3.61,8.07 -8.06,8.07 -4.45,0 -8.07,-3.62 -8.07,-8.07 0,-4.45 3.61,-8.07 8.07,-8.07 z"
        fill="#FFF" transform="translate(47.43)" />
</svg>