<?xml version="1.0" encoding="UTF-8" standalone="no"?>
<svg fill="#000000" fill-rule="evenodd" height="300px" version="1.1" viewBox="0 0 166.23 221.81"
    width="300px" x="0px" xmlns="http://www.w3.org/2000/svg" y="0px">
    <path
        d="m 47.43,0 h 28.7 C 99.6,0 118.8,19.2 118.8,42.67 v 136.47 c 0,23.48 -19.2,42.67 -42.67,42.67 h -28.7 z m 6.17,20.07 h 4.04 v -4.05 c 0,-0.28 0.23,-0.5 0.5,-0.5 h 2.95 c 0.28,0 0.5,0.22 0.5,0.5 v 4.05 h 4.04 c 0.27,0 0.5,0.22 0.5,0.5 v 2.96 c 0,0.27 -0.22,0.49 -0.5,0.49 h -4.04 v 4.04 c 0,0.27 -0.23,0.5 -0.5,0.5 h -2.95 c -0.28,0 -0.5,-0.23 -0.5,-0.5 V 24.02 H 53.6 c -0.27,0 -0.5,-0.22 -0.5,-0.49 v -2.96 c 0,-0.28 0.23,-0.5 0.5,-0.5 z m 15.95,130.94 c 4.46,0 8.07,3.62 8.07,8.06 0,4.46 -3.61,8.07 -8.07,8.07 -4.45,0 -8.06,-3.61 -8.06,-8.07 0,-4.45 3.62,-8.06 8.06,-8.06 z m 3.58,-94.83 c 0,4.46 -3.61,8.07 -8.06,8.07 -4.45,0 -8.06,-3.61 -8.06,-8.07 0,-4.45 3.61,-8.06 8.06,-8.06 4.45,0 8.06,3.62 8.06,8.06 z m 8.28,8.29 c 4.45,0 8.07,3.61 8.07,8.06 0,4.46 -3.62,8.07 -8.07,8.07 -4.45,0 -8.06,-3.61 -8.06,-8.07 0,-4.45 3.61,-8.06 8.06,-8.06 z m 24.42,-8.29 c 0,4.46 -3.61,8.07 -8.07,8.07 -4.45,0 -8.06,-3.61 -8.06,-8.07 0,-4.45 3.62,-8.06 8.06,-8.06 4.46,0 8.07,3.62 8.07,8.06 z M 81.41,31.77 c 4.45,0 8.07,3.61 8.07,8.07 0,4.45 -3.62,8.06 -8.07,8.06 -4.45,0 -8.06,-3.61 -8.06,-8.06 0,-4.45 3.61,-8.07 8.06,-8.07 z m -0.1,69.19 c 9.44,0 17.09,7.66 17.09,17.09 0,9.44 -7.65,17.09 -17.09,17.09 -9.43,0 -17.09,-7.65 -17.09,-17.09 0,-9.44 7.66,-17.09 17.09,-17.09 z"
        fill="#FFF" />
</svg>