<?xml version="1.0" encoding="UTF-8" standalone="no"?>
<svg version="1.1" viewBox="0 0 505.47 445.0875" x="0px" xmlns="http://www.w3.org/2000/svg" y="0px">
    <path d="m 357.8418,49.244141 c 0.53308,-0.0026 1.07056,0.01146 1.61132,0.04297 13.20796,-0.145178 26.3871,1.936033 39.39063,4.621094 20.1227,4.160736 41.04568,15.25607 48.63281,35.550781 8.20187,6.454136 13.31475,12.498964 14.72071,16.021484 1.30988,3.30015 6.77189,25.25097 13.19531,54.32812 -15.24238,24.71253 -38.12609,58.12019 -59.05469,85.88282 -17.40117,23.08078 -33.39232,42.1772 -42.36914,48.98047 -23.82896,-2.01036 -72.76511,-3.03126 -121.68164,-3.03126 -48.32048,0 -96.65216,1.00202 -120.74219,3.03126 -8.97204,-6.78563 -24.98754,-25.90768 -42.406248,-49.01172 -20.917409,-27.74779 -43.798431,-61.13119 -59.041016,-85.83008 6.42658,-29.09903 11.893865,-51.06647 13.210938,-54.34961 1.405964,-3.52256 6.51858,-9.567247 14.720703,-16.021484 2.586751,-6.678923 6.64759,-12.782912 11.841797,-17.716796 19.0183,-17.524075 46.739526,-20.629395 71.470706,-22.431641 1.69581,-0.04434 3.39242,-0.04934 5.08789,0.01172 10.60001,-0.687329 19.11622,5.942164 28.23242,10.214843 0.5945,-0.0305 1.16757,-0.06598 1.76562,-0.0957 0.008,-4.56e-4 0.0155,-0.0034 0.0234,-0.0039 23.56413,-1.172339 49.91276,-1.767578 76.30664,-1.767578 27.05508,0 54.0857,0.621302 78.09571,1.853516 0.27043,-0.561351 1.79759,-1.379133 5.06054,-2.558594 6.78424,-3.918757 13.93145,-7.681279 21.92774,-7.720703 z"
        fill="#FFF" />
</svg>