<?xml version="1.0" encoding="UTF-8" standalone="no"?>
<svg version="1.1" viewBox="0 0 505.47 445.0875" x="0px" xmlns="http://www.w3.org/2000/svg" y="0px">
    <path
        d="m 346.79,87.86 c 5.47,0 10.45,2.23 14.04,5.83 3.59,3.59 5.83,8.56 5.83,14.04 0,5.48 -2.23,10.45 -5.82,14.04 l -0.1,0.1 c -3.59,3.54 -8.53,5.73 -13.95,5.73 -5.48,0 -10.45,-2.23 -14.04,-5.82 l -0.1,-0.1 c -3.54,-3.59 -5.73,-8.53 -5.73,-13.94 0,-5.47 2.23,-10.45 5.83,-14.04 3.59,-3.59 8.56,-5.83 14.04,-5.83 z m 39.07,34.84 c 5.48,0 10.46,2.23 14.05,5.81 l 0.1,0.1 c 3.53,3.59 5.72,8.52 5.72,13.95 0,5.48 -2.23,10.45 -5.81,14.04 -3.59,3.59 -8.57,5.81 -14.05,5.81 -5.48,0 -10.45,-2.23 -14.05,-5.81 -3.59,-3.59 -5.81,-8.56 -5.81,-14.04 0,-5.48 2.23,-10.45 5.81,-14.05 3.59,-3.59 8.57,-5.82 14.05,-5.82 z m 39.25,-34.84 c 5.48,0 10.45,2.23 14.04,5.82 l 0.1,0.1 c 3.53,3.59 5.73,8.53 5.73,13.95 0,5.47 -2.23,10.45 -5.83,14.04 -3.58,3.59 -8.56,5.83 -14.04,5.83 -5.48,0 -10.45,-2.23 -14.04,-5.81 -3.59,-3.59 -5.82,-8.57 -5.82,-14.05 0,-5.48 2.23,-10.45 5.82,-14.05 3.59,-3.59 8.56,-5.82 14.04,-5.82 z M 385.86,54.18 c 5.48,0 10.45,2.23 14.04,5.82 l 0.1,0.1 c 3.53,3.58 5.73,8.53 5.73,13.94 0,5.48 -2.23,10.45 -5.81,14.05 l -0.1,0.1 c -3.59,3.54 -8.53,5.73 -13.95,5.73 -5.47,0 -10.45,-2.23 -14.04,-5.83 -3.59,-3.59 -5.82,-8.56 -5.82,-14.04 0,-5.47 2.23,-10.45 5.83,-14.04 3.59,-3.59 8.56,-5.83 14.04,-5.83 z m -220.63,83.69 h 19.62 c 1.53,0 2.93,0.63 3.94,1.64 l 0.1,0.11 c 0.95,0.99 1.54,2.35 1.54,3.83 v 19.21 h 19.99 c 1.31,0 2.53,0.55 3.38,1.4 l 0.15,0.17 c 0.77,0.85 1.26,1.98 1.26,3.2 v 21.22 c 0,1.3 -0.55,2.5 -1.4,3.37 -0.89,0.88 -2.10641,1.54842 -3.39,1.42 h -19.99 v 19.21 c 0,1.52 -0.63,2.92 -1.64,3.93 -1.02,1.01 -2.42,1.64 -3.95,1.64 h -19.62 c -1.53,0 -2.94,-0.64 -3.94,-1.64 -1.01,-1.01 -1.65,-2.41 -1.65,-3.94 v -19.21 h -19.99 c -1.31,0 -2.5,-0.54 -3.36,-1.4 -0.88,-0.89 -1.42,-2.09 -1.42,-3.39 v -21.22 c 0,-1.31 0.55,-2.52 1.4,-3.37 l 0.19,-0.16 c 0.85,-0.76 1.97606,-1.11855 3.19,-1.24 h 19.99 v -19.21 c 0,-1.53 0.63,-2.93 1.64,-3.94 l 0.13,-0.12 c 1,-0.93 2.35,-1.52 3.82,-1.52 z m 153.54,8.21 c 8.61,0 16.44,3.5 22.1,9.16 5.66,5.66 9.16,13.47 9.16,22.1 0,8.62 -3.5,16.44 -9.15,22.09 l -0.1,0.1 c -5.65,5.59 -13.42,9.05 -22,9.05 -8.61,0 -16.42,-3.5 -22.08,-9.15 -5.67,-5.66 -9.16,-13.47 -9.16,-22.08 0,-8.63 3.5,-16.45 9.15,-22.1 5.65,-5.65 13.46,-9.16 22.09,-9.16 z M 113.62,76.35 c 8.62,0 16.44,3.5 22.1,9.16 5.65,5.65 9.16,13.48 9.16,22.1 0,8.62 -3.5,16.45 -9.16,22.1 l -0.1,0.1 c -5.65,5.59 -13.42,9.06 -21.99,9.06 -8.62,0 -16.44,-3.51 -22.09,-9.15 -5.65,-5.65 -9.15,-13.48 -9.15,-22.1 0,-8.61 3.5,-16.44 9.15,-22.1 5.65,-5.65 13.47,-9.16 22.09,-9.16 z"
        fill="#FFF" transform="translate(0.00777841,44.510548)" />
</svg>