<?xml version="1.0" encoding="UTF-8" standalone="no"?>
<svg version="1.1" viewBox="0 0 505.47 445.0875" x="0px" xmlns="http://www.w3.org/2000/svg" y="0px">
    <path
        d="m 362.52148,44.507812 c -1.07798,-0.01084 -2.11226,-0.0028 -3.10351,0.02344 -8.14,0.22 -13.5011,1.698984 -17.12109,3.958984 -1.39001,0.87 -3.32875,1.931016 -5.46876,3.041016 l -8.12109,3.988281 c -23.52614,-1.166606 -49.73629,-1.759765 -75.96875,-1.759765 -26.24113,0 -52.46006,0.59499 -75.99219,1.763672 l -8.08789,-3.982422 c -2.14,-1.11 -4.07093,-2.16125 -5.46093,-3.03125 -3.62,-2.25 -8.9804,-3.738985 -17.15039,-3.958985 -7.91,-0.22 -18.53946,0.739297 -32.93946,3.279297 -14.489996,2.55 -26.689061,6.840858 -36.289061,13.13086 -9.558847,6.251151 -16.542648,14.513631 -20.65039,25.005859 -9.131053,7.123084 -14.862513,14.010749 -16.490235,18.083981 -1.354813,3.39025 -6.975281,25.94942 -13.533203,55.625 -0.01264,0.047 -0.02012,0.0948 -0.0293,0.14258 C 22.46831,176.32625 18.538884,194.96181 14.87695,213.87109 8.6669532,245.96109 3.2183594,278.65 1.3183594,302 c -2.53,31.15 -1.66109375,53.81109 4.8789062,69.62109 6.6800004,16.16 19.1198434,25.15891 39.5898434,28.62891 25.24,4.3 44.551565,-33.70031 60.351561,-64.82031 9.91,-19.51 18.39875,-36.20906 24.96875,-36.78907 23.66,-2.04999 72.39016,-3.06054 121.16016,-3.06054 49.37,0 98.70984,1.04054 122.08984,3.06054 6.56,0.58 15.06071,17.26907 24.9707,36.78907 15.81001,31.11 35.10961,69.12031 60.34961,64.82031 20.47,-3.48 32.90985,-12.46891 39.58985,-28.62891 6.54,-15.81 7.42086,-38.46109 4.88086,-69.62109 -1.91,-23.35 -7.35055,-56.01961 -13.56055,-88.09961 -3.64944,-18.86673 -7.56548,-37.45779 -11.20508,-53.94141 -0.0149,-0.1236 -0.0403,-0.24489 -0.0781,-0.36328 -6.54938,-29.63868 -12.16421,-52.16158 -13.5176,-55.55468 C 464.15419,99.982275 458.44452,93.105152 449.3418,85.992188 445.21679,75.492625 438.22785,67.219239 428.6582,60.951172 l 0.0195,-0.0098 c -9.6,-6.29 -21.78906,-10.580859 -36.28906,-13.130859 -12.6,-2.2225 -22.32127,-3.226855 -29.86719,-3.302735 z m -4.67968,4.736329 c 0.53308,-0.0026 1.07056,0.01146 1.61132,0.04297 13.20796,-0.145178 26.3871,1.936033 39.39063,4.621094 20.1227,4.160736 41.04568,15.25607 48.63281,35.550781 8.20187,6.454136 13.31475,12.498964 14.72071,16.021484 1.30988,3.30015 6.77189,25.25097 13.19531,54.32812 -15.24238,24.71253 -38.12609,58.12019 -59.05469,85.88282 -17.40117,23.08078 -33.39232,42.1772 -42.36914,48.98047 -23.82896,-2.01036 -72.76511,-3.03126 -121.68164,-3.03126 -48.32048,0 -96.65216,1.00202 -120.74219,3.03126 -8.97204,-6.78563 -24.98754,-25.90768 -42.406248,-49.01172 -20.917409,-27.74779 -43.798431,-61.13119 -59.041016,-85.83008 6.42658,-29.09903 11.893865,-51.06647 13.210938,-54.34961 1.405964,-3.52256 6.51858,-9.567247 14.720703,-16.021484 2.586751,-6.678923 6.64759,-12.782912 11.841797,-17.716796 19.0183,-17.524075 46.739526,-20.629395 71.470706,-22.431641 1.69581,-0.04434 3.39242,-0.04934 5.08789,0.01172 10.60001,-0.687329 19.11622,5.942164 28.23242,10.214843 0.5945,-0.0305 1.16757,-0.06598 1.76562,-0.0957 0.008,-4.56e-4 0.0155,-0.0034 0.0234,-0.0039 23.56413,-1.172339 49.91276,-1.767578 76.30664,-1.767578 27.05508,0 54.0857,0.621302 78.09571,1.853516 0.27043,-0.561351 1.79759,-1.379133 5.06054,-2.558594 6.78424,-3.918757 13.93145,-7.681279 21.92774,-7.720703 z M 476.58008,165.27148 c 3.34432,15.31767 6.87178,32.16521 10.19726,49.35938 6.19,31.95 11.61,64.47992 13.5,87.66992 2.49,30.56 1.68016,52.67008 -4.58984,67.83008 -6.11,14.79 -17.62891,23.04953 -36.62891,26.26953 -22.43,3.81 -41.02023,-32.77023 -56.24023,-62.74023 -8.95891,-17.6518 -16.82213,-33.10433 -24.38281,-37.61719 9.56767,-8.18862 24.72065,-26.39521 41.02148,-48.01172 20.07546,-26.62511 41.88255,-58.3597 57.12305,-82.75977 z m -447.671877,0.0274 c 15.240461,24.39432 37.044054,56.10152 57.109375,82.72265 16.318612,21.62807 31.481292,39.85896 41.033202,48.0293 -7.5603,4.52626 -15.41029,19.97781 -24.36328,37.60938 -15.21,29.96 -33.810234,66.55023 -56.240234,62.74023 -19,-3.23 -30.518907,-11.47953 -36.6289066,-26.26953 -6.27,-15.16 -7.0798438,-37.27008 -4.5898438,-67.83008 1.89,-23.2 7.3100004,-55.74094 13.5000004,-87.71094 3.320879,-17.17034 6.840524,-33.99231 10.179687,-49.29101 z"
        fill="#FFF" />
</svg>